<svg width="100%" height="1117" viewBox="0 0 1728 1117" fill="none" xmlns="http://www.w3.org/2000/svg">
<g clip-path="url(#clip0_124_129)">
<path d="M1152.32 1116.02L1125.91 1161.27L1099.5 1206.52H1205.12L1178.71 1161.27L1152.32 1116.02Z" fill="#C21717" fill-opacity="0.6"/>
<path d="M1521.95 1206.52L1495.54 1161.27L1469.14 1116.02L1442.74 1161.27L1416.33 1206.52H1469.14H1521.95Z" fill="#FF8F8F" fill-opacity="0.6"/>
<path d="M1257.92 1116.02L1231.51 1070.78L1205.12 1025.53L1178.71 1070.78L1152.32 1116.02H1205.12H1257.92Z" fill="#C21717" fill-opacity="0.6"/>
<path d="M1680.36 754.062L1653.95 799.307L1627.56 844.552H1733.17L1706.77 799.307L1680.36 754.062Z" fill="#C21717" fill-opacity="0.6"/>
<path d="M1680.36 1116.02L1653.96 1070.78L1627.56 1025.53L1601.15 1070.78L1574.76 1116.02H1627.56H1680.36Z" fill="#881010" fill-opacity="0.7"/>
<path d="M1574.76 935.04H1680.36L1653.96 889.797L1627.56 844.552L1601.15 889.797L1574.76 935.04Z" fill="#C21717" fill-opacity="0.6"/>
<path d="M1521.95 1206.52L1548.35 1161.27L1574.76 1116.02H1469.14L1495.55 1161.27L1521.95 1206.52Z" fill="#881010" fill-opacity="0.7"/>
<path d="M1469.14 1116.02H1363.53L1389.94 1161.27L1416.33 1206.52L1442.74 1161.27L1469.14 1116.02Z" fill="#D5D5D5"/>
<path d="M1416.33 1025.53H1310.73L1337.14 1070.78L1363.53 1116.02L1389.94 1070.78L1416.33 1025.53Z" fill="#FF8F8F" fill-opacity="0.6"/>
<path d="M1469.14 935.04L1495.55 980.287L1521.95 1025.53L1548.35 980.287L1574.76 935.04H1521.95H1469.14Z" fill="#FF8F8F" fill-opacity="0.6"/>
<path d="M1521.95 844.552L1548.35 889.797L1574.76 935.04L1601.15 889.797L1627.56 844.552H1574.76H1521.95Z" fill="#FF8F8F" fill-opacity="0.6"/>
<path d="M-5.16803 -0.0187607L-31.571 45.2249L-57.974 90.47H47.6366L21.2336 45.2249L-5.16803 -0.0187607Z" fill="#FFC7C7" fill-opacity="0.6"/>
<path d="M-57.974 633.408H47.6366L21.2336 588.163L-5.16803 542.92L-31.571 588.163L-57.974 633.408Z" fill="#FFC7C7" fill-opacity="0.6"/>
<path d="M153.247 452.428L179.65 407.185L206.052 361.94H100.441L126.844 407.185L153.247 452.428Z" fill="#C21717" fill-opacity="0.6"/>
<path d="M-57.974 271.45L-31.571 316.693L-5.16803 361.94L21.2336 316.693L47.6366 271.45H-5.16803H-57.974Z" fill="#D5D5D5"/>
<path d="M206.052 180.96L232.455 226.205L258.857 271.45L285.26 226.205L311.663 180.96H258.857H206.052Z" fill="#FF8F8F" fill-opacity="0.6"/>
<path d="M470.078 90.4699L496.481 135.715L522.884 180.96L549.287 135.715L575.689 90.4699H522.884H470.078Z" fill="#FF8F8F" fill-opacity="0.6"/>
<path d="M153.247 90.4699L179.65 135.715L206.052 180.96L232.455 135.715L258.857 90.4699H206.052H153.247Z" fill="#D5D5D5"/>
<path d="M100.441 180.96L126.844 135.715L153.247 90.4699H47.6367L74.0384 135.715L100.441 180.96Z" fill="#FFC7C7" fill-opacity="0.6"/>
<path d="M-57.974 90.4699L-31.571 135.715L-5.16803 180.96L21.2336 135.715L47.6366 90.4699H-5.16803H-57.974Z" fill="#D5D5D5"/>
<path d="M206.052 -0.0187607L232.455 45.2249L258.857 90.47L285.26 45.2249L311.663 -0.0187607H258.857H206.052Z" fill="#FFC7C7" fill-opacity="0.6"/>
<path d="M-5.16803 -0.0187607L21.2336 45.2249L47.6366 90.47L74.0383 45.2249L100.441 -0.0187607H47.6366H-5.16803Z" fill="#881010" fill-opacity="0.7"/>
</g>
<defs>
<clipPath id="clip0_124_129">
<rect width="2372" height="1478" fill="white" transform="translate(-322 -181)"/>
</clipPath>
</defs>
</svg>
